<svg width="382" height="91" viewBox="0 0 382 91" fill="none" xmlns="http://www.w3.org/2000/svg">
<path d="M5.74219 26.8926H21.2598V77H5.74219V26.8926ZM31.4795 40.7012H44.4336V46.6143C46.3704 44.1989 48.3301 42.4785 50.3125 41.4531C52.2949 40.4049 54.7103 39.8809 57.5586 39.8809C61.4095 39.8809 64.4173 41.0316 66.582 43.333C68.7695 45.6117 69.8633 49.1436 69.8633 53.9287V77H55.8838V57.0391C55.8838 54.7604 55.4622 53.154 54.6191 52.2197C53.776 51.2627 52.5911 50.7842 51.0645 50.7842C49.3783 50.7842 48.0111 51.4222 46.9629 52.6982C45.9147 53.9743 45.3906 56.2643 45.3906 59.5684V77H31.4795V40.7012ZM94.9512 26.8926V40.7012H102.607V50.8525H94.9512V63.7383C94.9512 65.2878 95.0993 66.3132 95.3955 66.8145C95.8512 67.5892 96.6488 67.9766 97.7881 67.9766C98.8135 67.9766 100.249 67.6803 102.095 67.0879L103.12 76.6924C99.6794 77.4443 96.4665 77.8203 93.4814 77.8203C90.0179 77.8203 87.4658 77.376 85.8252 76.4873C84.1846 75.5986 82.9655 74.2542 82.168 72.4541C81.3932 70.6312 81.0059 67.6917 81.0059 63.6357V50.8525H75.8789V40.7012H81.0059V34.0361L94.9512 26.8926ZM149.57 62.3027H121.68C121.93 64.5358 122.534 66.1992 123.491 67.293C124.836 68.8652 126.59 69.6514 128.755 69.6514C130.122 69.6514 131.421 69.3096 132.651 68.626C133.403 68.193 134.212 67.4297 135.078 66.3359L148.784 67.6006C146.688 71.2464 144.159 73.8669 141.196 75.4619C138.234 77.0342 133.984 77.8203 128.447 77.8203C123.639 77.8203 119.857 77.1481 117.1 75.8037C114.342 74.4365 112.052 72.2832 110.229 69.3438C108.429 66.3815 107.529 62.9066 107.529 58.9189C107.529 53.2451 109.341 48.6536 112.964 45.1445C116.61 41.6354 121.634 39.8809 128.037 39.8809C133.232 39.8809 137.334 40.667 140.342 42.2393C143.35 43.8115 145.64 46.0902 147.212 49.0752C148.784 52.0602 149.57 55.9453 149.57 60.7305V62.3027ZM135.42 55.6377C135.146 52.9489 134.417 51.0234 133.232 49.8613C132.07 48.6992 130.532 48.1182 128.618 48.1182C126.408 48.1182 124.642 48.9954 123.32 50.75C122.477 51.8438 121.942 53.473 121.714 55.6377H135.42ZM156.099 40.7012H169.121V46.6484C170.374 44.0736 171.662 42.3076 172.983 41.3506C174.328 40.3708 175.98 39.8809 177.939 39.8809C179.99 39.8809 182.235 40.5189 184.673 41.7949L180.366 51.707C178.726 51.0234 177.427 50.6816 176.47 50.6816C174.647 50.6816 173.234 51.4336 172.231 52.9375C170.796 55.0566 170.078 59.0215 170.078 64.832V77H156.099V40.7012ZM202.549 40.7012H209.18V50.8867H202.549V77H188.604V50.8867H183.408V40.7012H188.604V39.0605C188.604 37.5794 188.763 35.9502 189.082 34.1729C189.401 32.3955 189.993 30.9486 190.859 29.832C191.748 28.6927 192.979 27.7812 194.551 27.0977C196.146 26.3913 198.47 26.0381 201.523 26.0381C203.962 26.0381 207.505 26.3229 212.153 26.8926L210.615 35.3008C208.952 35.0273 207.607 34.8906 206.582 34.8906C205.329 34.8906 204.429 35.1071 203.882 35.54C203.335 35.9502 202.948 36.611 202.72 37.5225C202.606 38.0238 202.549 39.0833 202.549 40.7012ZM227.021 52.459L213.726 51.0576C214.227 48.7334 214.945 46.9105 215.879 45.5889C216.836 44.2445 218.203 43.0824 219.98 42.1025C221.257 41.3962 223.011 40.8493 225.244 40.4619C227.477 40.0745 229.893 39.8809 232.49 39.8809C236.66 39.8809 240.01 40.1201 242.539 40.5986C245.068 41.0544 247.176 42.0228 248.862 43.5039C250.047 44.5293 250.981 45.9876 251.665 47.8789C252.349 49.7474 252.69 51.5361 252.69 53.2451V69.2754C252.69 70.9844 252.793 72.3288 252.998 73.3086C253.226 74.2656 253.704 75.4961 254.434 77H241.377C240.853 76.0658 240.511 75.3594 240.352 74.8809C240.192 74.3796 240.033 73.6048 239.873 72.5566C238.05 74.3112 236.239 75.5645 234.438 76.3164C231.978 77.319 229.118 77.8203 225.859 77.8203C221.53 77.8203 218.237 76.8177 215.981 74.8125C213.748 72.8073 212.632 70.335 212.632 67.3955C212.632 64.6383 213.441 62.3711 215.059 60.5938C216.676 58.8164 219.661 57.4948 224.014 56.6289C229.232 55.5807 232.616 54.8516 234.165 54.4414C235.715 54.0085 237.355 53.4502 239.087 52.7666C239.087 51.0576 238.734 49.8613 238.027 49.1777C237.321 48.4941 236.079 48.1523 234.302 48.1523C232.023 48.1523 230.314 48.5169 229.175 49.2461C228.286 49.8158 227.568 50.8867 227.021 52.459ZM239.087 59.7734C237.173 60.457 235.179 61.0609 233.105 61.585C230.28 62.3369 228.491 63.0775 227.739 63.8066C226.965 64.5586 226.577 65.4131 226.577 66.3701C226.577 67.4639 226.953 68.3639 227.705 69.0703C228.48 69.7539 229.608 70.0957 231.089 70.0957C232.638 70.0957 234.074 69.7197 235.396 68.9678C236.74 68.2158 237.686 67.3044 238.232 66.2334C238.802 65.1396 239.087 63.7269 239.087 61.9951V59.7734ZM288.101 62.8154L301.328 64.3193C300.599 67.0765 299.403 69.4691 297.739 71.4971C296.076 73.5023 293.945 75.0632 291.348 76.1797C288.773 77.2962 285.492 77.8545 281.504 77.8545C277.653 77.8545 274.44 77.5013 271.865 76.7949C269.313 76.0658 267.114 74.9036 265.269 73.3086C263.423 71.6908 261.976 69.7995 260.928 67.6348C259.88 65.4701 259.355 62.599 259.355 59.0215C259.355 55.2845 259.993 52.1742 261.27 49.6904C262.204 47.8675 263.48 46.2383 265.098 44.8027C266.715 43.3444 268.379 42.262 270.088 41.5557C272.799 40.4391 276.274 39.8809 280.513 39.8809C286.437 39.8809 290.949 40.9404 294.048 43.0596C297.17 45.1787 299.357 48.2777 300.61 52.3564L287.52 54.0996C287.109 52.5501 286.357 51.388 285.264 50.6133C284.193 49.8158 282.746 49.417 280.923 49.417C278.621 49.417 276.753 50.2487 275.317 51.9121C273.905 53.5527 273.198 56.0479 273.198 59.3975C273.198 62.3825 273.905 64.6497 275.317 66.1992C276.73 67.7487 278.53 68.5234 280.718 68.5234C282.541 68.5234 284.067 68.0563 285.298 67.1221C286.551 66.1878 287.485 64.7523 288.101 62.8154ZM348.018 62.3027H320.127C320.378 64.5358 320.981 66.1992 321.938 67.293C323.283 68.8652 325.037 69.6514 327.202 69.6514C328.569 69.6514 329.868 69.3096 331.099 68.626C331.851 68.193 332.66 67.4297 333.525 66.3359L347.231 67.6006C345.135 71.2464 342.606 73.8669 339.644 75.4619C336.681 77.0342 332.432 77.8203 326.895 77.8203C322.087 77.8203 318.304 77.1481 315.547 75.8037C312.79 74.4365 310.5 72.2832 308.677 69.3438C306.877 66.3815 305.977 62.9066 305.977 58.9189C305.977 53.2451 307.788 48.6536 311.411 45.1445C315.057 41.6354 320.081 39.8809 326.484 39.8809C331.68 39.8809 335.781 40.667 338.789 42.2393C341.797 43.8115 344.087 46.0902 345.659 49.0752C347.231 52.0602 348.018 55.9453 348.018 60.7305V62.3027ZM333.867 55.6377C333.594 52.9489 332.865 51.0234 331.68 49.8613C330.518 48.6992 328.979 48.1182 327.065 48.1182C324.855 48.1182 323.089 48.9954 321.768 50.75C320.924 51.8438 320.389 53.473 320.161 55.6377H333.867Z" fill="black"/>
<path d="M380.336 27C380.538 27.1971 380.741 27.3943 381 27.6465C380.152 29.1219 379.324 30.5703 378.489 32.0146C376.482 35.4883 374.493 38.9742 372.44 42.4168C372.146 42.9108 371.542 43.1919 370.94 43.5669C368.326 43.5653 365.853 43.5766 363.38 43.5684C361.437 43.562 359.494 43.5315 357.524 43.4567C357.545 43.0389 357.492 42.609 357.656 42.3234C360.559 37.2782 363.489 32.2506 366.412 27.2193C366.567 27.1901 366.722 27.1609 366.986 27.0815C371.509 27.0209 375.922 27.0104 380.336 27Z" fill="black"/>
<path d="M367.19 27.1649C364.241 32.178 361.249 37.1631 358.284 42.1656C358.116 42.4488 358.17 42.8751 358.129 43.3426C358.136 43.4886 358.136 43.5268 358.135 43.565C358.017 43.5744 357.898 43.5839 357.68 43.5119C355.833 43.4254 354.085 43.4202 352.337 43.4151C351.918 43.1277 351.916 42.8256 352.186 42.3799C353.454 40.2842 354.686 38.1646 355.933 36.0552C357.46 33.4735 358.963 30.8758 360.538 28.3268C360.87 27.7894 361.471 27.4329 362.09 27.0011C363.836 27.006 365.441 27.003 367.045 27C367.081 27.0469 367.117 27.0938 367.19 27.1649Z" fill="#474747"/>
<path d="M374.795 15C375.983 15.4386 376.609 16.4297 377.225 17.449C378.483 19.5308 379.783 21.5875 381.023 23.6803C381.205 23.9881 381.152 24.4365 381.046 24.8238C376.26 24.834 371.635 24.8369 367.011 24.8532C366.648 24.8545 366.286 24.9489 365.923 25C365.731 24.9652 365.538 24.9304 365.261 24.8087C363.382 21.9109 361.574 19.1095 359.817 16.2752C359.628 15.9698 359.746 15.4729 359.807 15.0445C364.86 15.0161 369.828 15.008 374.795 15Z" fill="black"/>
<path d="M360.223 15.2294C360.247 15.6309 360.136 16.1199 360.315 16.4204C361.982 19.2093 363.698 21.9658 365.429 24.7896C365.36 24.9081 365.263 24.9688 365.044 24.9758C363.235 24.9481 361.549 24.974 359.862 25C358.328 24.5279 357.908 23.013 357.16 21.8228C356.111 20.152 355.091 18.4584 354.141 16.7257C353.912 16.3091 354.007 15.7004 354.111 15.1866C355.78 15.1885 357.292 15.1926 358.803 15.1715C359.105 15.1673 359.406 15.067 359.708 15.011C359.83 14.9979 359.952 14.9848 360.133 15.0465C360.202 15.1574 360.213 15.1934 360.223 15.2294Z" fill="#474747"/>
</svg>
